<?xml version="1.0"?>
<svg xmlns="http://www.w3.org/2000/svg" id="Layer_1" enable-background="new 0 0 512.336 512.336" height="512px" viewBox="0 0 512.336 512.336" width="512px"><g><g><path d="m224.601 265.163c11.937-1.043 24.69-1.702 37.982-1.76 2.832-2.435 6.071-4.495 9.674-6.066l56.572-24.654 1.825 13.267-53.247 23.205c-12.848 5.599-18.724 20.553-13.125 33.401 5.58 12.805 20.513 18.741 33.4 13.125l70.868-30.884c10.438-4.549 16.548-15.477 15.001-26.722-3.593-26.114-11.526-83.765-13.917-101.137-1.541-11.204-6.321-21.307-13.296-29.433z" data-original="#000000" class="active-path" data-old_color="#000000" fill="#FFFFFF"/><path d="m209.785 353.601c-13.429 2.216-27.559-2.736-36.58-14.065l-6.658-8.359c-7.967 1.912-12.694 3.331-13.281 3.511-4.43 1.388-9.184 1.655-13.731.777-2.894 5.209-4.125 9.378-4.22 15.346.379 6.253 1.705 10.895 3.427 17.601l34.539 123.198c4.236 15.113 19.915 23.891 34.989 19.666 15.092-4.231 23.897-19.896 19.665-34.988l-31.442-112.151z" data-original="#000000" class="active-path" data-old_color="#000000" fill="#FFFFFF"/><path d="m336.109 367.386-46.202 105.146c-6.306 14.35.216 31.095 14.566 37.4 14.262 6.268 31.056-.128 37.4-14.566.045-.101 56.918-129.489 56.987-129.751 5.279-13.182-.038-28.135-12.159-35.112-7.433 5.467-17.037 7.003-25.899 3.888-15.576-5.476-31.539-9.165-47.359-11.517l-10.61 4.624c-14.68 6.398-31.451 2.915-42.394-8.057-6.353.072-12.567.299-18.6.652-.801 6.619-3.3 13.034-7.423 18.533h63.254z" data-original="#000000" class="active-path" data-old_color="#000000" fill="#FFFFFF"/><path d="m252.817 276.362c-10.569.281-20.525.925-29.645 1.769l10.531 13.223c3.877 4.868 6.38 10.384 7.581 16.084 3.566-.206 7.193-.37 10.874-.487-4.2-10.218-3.656-21.245.659-30.589z" data-original="#000000" class="active-path" data-old_color="#000000" fill="#FFFFFF"/><path d="m365.026 322.378c7.961 2.799 16.683-1.387 19.482-9.347 2.499-7.11-.582-14.815-6.938-18.377-1.239.715-2.526 1.374-3.869 1.959l-39.357 17.152c10.29 2.228 20.562 5.055 30.682 8.613z" data-original="#000000" class="active-path" data-old_color="#000000" fill="#FFFFFF"/><path d="m131.878 316.009c3.668 5.922 10.879 8.615 17.531 6.544.18-.056 3.155-.963 8.425-2.316l-20.83-26.155-3.175 3.318c-4.817 5.033-5.619 12.687-1.951 18.609z" data-original="#000000" class="active-path" data-old_color="#000000" fill="#FFFFFF"/><path d="m363.761 101.332c5.834-6.097 5.622-15.769-.475-21.603-6.099-5.835-15.769-5.621-21.603.475l-150.716 157.49 19.212 24.123z" data-original="#000000" class="active-path" data-old_color="#000000" fill="#FFFFFF"/><path d="m116.966 247.582 66.639 83.673c8.758 10.997 24.726 12.746 35.658 4.041 10.963-8.731 12.772-24.696 4.041-35.659l-57.141-71.749c3.687-8.499 16.706-38.511 22.402-51.642v45.541l106.935-111.742c-10.324 6.403-22.486 10.113-35.503 10.113-14.607 0-28.135-4.675-39.199-12.586-2.956-.384-3.297-.15-19.993-.222-22.888 0-43.563 13.568-52.67 34.564-2.701 6.226-30.463 70.224-34.6 79.76-3.732 8.606-2.412 18.57 3.431 25.908z" data-original="#000000" class="active-path" data-old_color="#000000" fill="#FFFFFF"/><circle cx="259.998" cy="52.592" r="52.592" data-original="#000000" class="active-path" data-old_color="#000000" fill="#FFFFFF"/></g></g> </svg>
